<svg width="24" height="24" viewBox="0 0 24 24" fill="none" xmlns="http://www.w3.org/2000/svg">
<path fill-rule="evenodd" clip-rule="evenodd" d="M9.87859 2.70705L5.5857 6.99994H3.15302C2.54447 6.99994 2.07701 7.53893 2.16307 8.14136L3.63205 18.4242C3.84318 19.9021 5.10895 20.9999 6.6019 20.9999H17.3981C18.8911 20.9999 20.1568 19.9022 20.368 18.4242L21.8369 8.14136C21.923 7.53893 21.4555 6.99994 20.847 6.99994H18.4141L14.1212 2.70705C12.9497 1.53547 11.0502 1.53548 9.87859 2.70705ZM12.707 4.12126C12.3165 3.73074 11.6833 3.73074 11.2928 4.12126L8.41412 6.99994L15.5857 6.99994L12.707 4.12126ZM9 11.9999C9 11.4477 8.55228 10.9999 8 10.9999C7.44772 10.9999 7 11.4477 7 11.9999V15.9999C7 16.5522 7.44772 16.9999 8 16.9999C8.55228 16.9999 9 16.5522 9 15.9999V11.9999ZM12 10.9999C12.5523 10.9999 13 11.4477 13 11.9999V15.9999C13 16.5522 12.5523 16.9999 12 16.9999C11.4477 16.9999 11 16.5522 11 15.9999V11.9999C11 11.4477 11.4477 10.9999 12 10.9999ZM17 11.9999C17 11.4477 16.5523 10.9999 16 10.9999C15.4477 10.9999 15 11.4477 15 11.9999V15.9999C15 16.5522 15.4477 16.9999 16 16.9999C16.5523 16.9999 17 16.5522 17 15.9999V11.9999Z" fill="#151515"/>
</svg>
